<svg width="77" height="24" viewBox="0 0 77 24" fill="none" xmlns="http://www.w3.org/2000/svg">
<g clip-path="url(#clip0_125_18)">
<path d="M12.0624 24C5.40276 24 0 18.6252 0 12C0 5.37095 5.39889 0 12.0624 0C18.7221 0 24.1249 5.37095 24.1249 12C24.1249 18.6252 18.7221 24 12.0624 24Z" fill="white"/>
<path d="M21.5724 5.8634C21.8006 6.6021 21.9282 7.38312 21.9282 8.19492C21.9282 10.815 20.6326 13.1157 18.6641 14.5585C15.2414 17.0708 10.2525 17.0747 3.36464 19.2331C5.4453 21.7069 8.57016 23.2805 12.0624 23.2805C18.3238 23.2805 23.4017 18.2289 23.4017 12C23.4017 9.73772 22.7287 7.6332 21.5724 5.8634Z" fill="#0164A8"/>
<path d="M18.8613 2.97402C16.9663 1.55818 14.611 0.719452 12.0624 0.719452C5.80111 0.719452 0.723206 5.77107 0.723206 12C0.723206 14.5085 1.54696 16.8208 2.93536 18.6944C10.5619 16.486 16.5834 10.5341 18.8613 2.97402Z" fill="#ED3136"/>
<path d="M51.0149 11.8153V11.7922C51.0072 11.6922 50.9878 11.5306 50.9685 11.3536C50.926 11.0343 50.8564 10.7188 50.7597 10.4149C50.0287 8.12184 48.0718 6.64059 45.7707 6.64059C45.5425 6.64059 45.3028 6.65598 45.0707 6.68676C42.1199 7.06381 40.1166 9.7185 40.5111 12.7349C40.8669 15.4627 43.0751 17.3325 45.763 17.3325C45.9912 17.3325 46.2271 17.3171 46.463 17.2902C47.8978 17.1093 49.1547 16.513 50.0983 15.3549C50.1525 15.2857 50.1796 15.2049 50.168 15.1279C50.1602 15.0625 50.1215 14.9971 50.0481 14.9471C49.8895 14.8355 49.3249 14.5624 49.0193 14.4162C48.9265 14.37 48.8569 14.3354 48.8144 14.3161C48.7215 14.27 48.6558 14.2469 48.5939 14.2469C48.5204 14.2469 48.4508 14.2854 48.3812 14.3661C47.774 15.0702 47.0044 15.4396 46.2193 15.5396C46.0646 15.5588 45.9138 15.5704 45.7669 15.5704C44.3359 15.5704 42.8895 14.6162 42.4718 13.3081L42.4602 13.2735L42.4912 13.2581C42.5646 13.2196 43.2337 12.9118 44.2276 12.9118C44.3514 12.9118 44.4751 12.9157 44.5989 12.9272C44.8851 12.9465 45.1713 12.9849 45.4729 13.0234C46.0298 13.0965 46.6099 13.1735 47.2829 13.1735C47.7006 13.1735 48.1066 13.1427 48.5243 13.085C50.1641 12.7733 50.8138 12.3155 50.8177 12.3078C51.0381 12.1616 51.0304 12.0385 51.0149 11.8153ZM49.1624 11.1497C48.8917 11.2382 48.5204 11.3113 48.0602 11.369C47.8398 11.3998 47.6 11.4114 47.3138 11.4114C46.8343 11.4114 46.316 11.3729 45.8133 11.3344H45.7939C45.3298 11.2998 44.889 11.2652 44.4674 11.2652C44.1658 11.2652 43.8873 11.2844 43.6243 11.3152C42.8354 11.4152 42.2127 11.6614 42.2127 11.6614L42.2204 11.596C42.3751 10.0263 43.7017 8.67971 45.3105 8.4681C45.4575 8.44887 45.6122 8.44117 45.763 8.44117C47.279 8.44117 48.7486 9.58385 49.1856 11.0997L49.1934 11.1382L49.1624 11.1497Z" fill="#0164A8"/>
<path d="M76.7022 7.24462C76.7022 7.10611 76.5901 6.99838 76.4547 6.99838H75.0972C74.9619 6.99838 74.8497 7.10996 74.8497 7.24462V16.8362C74.8497 16.9708 74.9619 17.0824 75.0972 17.0824H76.4547C76.5901 17.0824 76.7022 16.9708 76.7022 16.8362V7.24462Z" fill="#0164A8"/>
<path d="M75.774 3.57422C75.1011 3.57422 74.5481 4.12055 74.5481 4.79384C74.5481 5.46329 75.1011 6.00961 75.774 6.00961C76.4508 6.00961 77 5.46329 77 4.79384C77 4.12439 76.4508 3.57422 75.774 3.57422Z" fill="#0164A8"/>
<path d="M57.7519 17.3402C57.837 17.344 57.926 17.3479 58.011 17.3479C59.4033 17.3479 60.7028 16.8131 61.6657 15.8474C62.6403 14.8663 63.1779 13.5159 63.1779 12.05C63.1779 9.01828 60.8304 6.64444 57.8332 6.64444C55.3928 6.64444 53.3354 8.24111 52.705 10.6188C52.5967 11.0228 52.4884 12.05 52.4884 13.0734V20.6028C52.4884 20.7413 52.5967 20.8528 52.7359 20.8528L54.0856 20.849C54.2249 20.849 54.337 20.7374 54.337 20.6028V15.8589L54.4066 15.9282C55.0641 16.5592 56.2901 17.2709 57.7519 17.3402ZM57.8099 8.46425C59.732 8.46425 61.2403 10.0378 61.2403 12.0462C61.2403 14.066 59.8094 15.5935 57.9144 15.5935C56.9552 15.5935 56.0696 15.251 55.4199 14.6355C54.7508 14.0006 54.3796 13.1004 54.3796 12.1116C54.3796 10.0994 55.9188 8.46425 57.8099 8.46425Z" fill="#0164A8"/>
<path d="M33.5652 17.3402C33.6503 17.344 33.7392 17.3479 33.8243 17.3479C35.2204 17.3479 36.516 16.8131 37.479 15.8474C38.4536 14.8663 38.9912 13.5159 38.9912 12.05C38.9912 9.01828 36.6398 6.64444 33.6464 6.64444C31.2061 6.64444 29.1448 8.24111 28.5182 10.6188C28.4099 11.0228 28.3017 12.05 28.3017 13.0734V20.6028C28.3017 20.7413 28.4138 20.8528 28.5492 20.8528L29.8989 20.849C30.0381 20.849 30.1503 20.7374 30.1503 20.6028L30.1425 15.8512L30.2122 15.9205C30.8735 16.5592 32.0995 17.2709 33.5652 17.3402ZM33.6232 8.46425C35.5453 8.46425 37.0536 10.0378 37.0536 12.0462C37.0536 14.066 35.6265 15.5935 33.7276 15.5935C32.7685 15.5935 31.8829 15.251 31.2331 14.6355C30.5641 14.0006 30.1928 13.1004 30.1928 12.1116C30.189 10.0994 31.732 8.46425 33.6232 8.46425Z" fill="#0164A8"/>
<path d="M64.4735 15.6589C65.6453 16.7246 66.9254 17.3325 68.5884 17.3325H68.6387C71.5083 17.3132 72.7923 15.7551 72.7923 14.2199C72.7923 12.0962 70.7735 11.5152 70.1586 11.3883C69.9613 11.3498 69.7525 11.3113 69.5436 11.269C69.0448 11.1728 68.5265 11.0728 68.0547 10.9458C67.726 10.8573 66.647 10.4995 66.647 9.69927C66.647 8.81822 67.6293 8.34499 68.5536 8.34499C69.3309 8.34499 69.9768 8.4758 70.8044 9.11831C70.8663 9.16833 70.9591 9.22604 71.0713 9.22604C71.1525 9.22604 71.2337 9.19526 71.3149 9.13755C71.5431 8.96826 71.9646 8.61815 72.2431 8.34114C72.3088 8.27573 72.3398 8.20263 72.3359 8.12569C72.3282 8.01026 72.2431 7.91408 72.1967 7.87561C71.0906 7.00225 70.0232 6.64444 68.5227 6.64059H68.5149C66.3646 6.64059 64.7403 8.01411 64.7403 9.83393C64.7403 11.2767 65.9315 12.3039 68.0972 12.7272L69.4508 12.9849C70.3403 13.1465 70.8431 13.6159 70.8238 14.2738C70.8083 14.9163 70.0155 15.5819 68.716 15.5819C67.6525 15.5819 66.7204 15.1703 65.9354 14.4623L65.9238 14.4508C65.8696 14.4008 65.8039 14.3392 65.7149 14.3392C65.653 14.3392 65.5873 14.37 65.5138 14.4239C65.4326 14.4893 64.5276 15.201 64.4309 15.3011C64.3884 15.3472 64.3652 15.3972 64.3691 15.4511C64.3691 15.5358 64.4232 15.6127 64.4735 15.6589Z" fill="#0164A8"/>
</g>
<defs>
<clipPath id="clip0_125_18">
<rect width="77" height="24" fill="white"/>
</clipPath>
</defs>
</svg>
