<svg width="24" height="24" viewBox="0 0 24 24" fill="none" xmlns="http://www.w3.org/2000/svg">
<g clip-path="url(#clip0_125_6)">
<path d="M23.9999 12C23.9999 18.6275 18.6273 24 12 24C5.3726 24 0 18.6275 0 12C0 5.37263 5.3726 0 12 0C18.6274 0 23.9999 5.37263 23.9999 12Z" fill="white"/>
<path d="M11.8998 4.26624C12.3222 4.50848 12.7703 4.82024 13.1114 5.15062L12.9774 5.28459C12.3043 5.21339 11.5954 5.30225 10.9573 5.31204C10.8861 5.2406 10.7428 5.13321 10.8763 5.04347L11.8998 4.26624ZM23.8017 12.5849C23.8106 12.8872 23.8392 13.1468 23.7207 13.4561C22.491 13.8041 21.6832 12.5088 20.49 12.7041L20.6249 13.3756C21.7288 13.4117 22.4183 14.4648 23.5587 14.4195C23.3967 14.7415 23.631 15.5897 22.9132 15.2506C22.1681 15.0725 21.6294 14.4195 20.8129 14.4195C20.7144 14.5995 20.7768 14.8486 20.7595 15.0615C21.6208 15.1959 22.2403 15.9202 23.1014 16.0539C23.0204 16.3483 22.9401 16.678 22.6976 16.8576C21.9971 16.688 21.4499 16.062 20.7041 16.0799L20.5713 16.6965C21.2801 16.7146 21.738 17.3384 22.375 17.5257C22.3925 17.7858 22.1588 18.0182 22.0242 18.2503C21.4588 18.0813 21.0275 17.598 20.3815 17.6337C20.3725 17.3915 20.517 17.1165 20.4625 16.8576C19.7368 17.0723 19.2502 16.4015 18.7124 15.9991C18.6969 14.6823 17.3036 13.8185 17.23 12.5849C17.2159 12.339 17.2536 12.0764 17.3662 11.7943C17.8242 10.7409 17.6803 9.37318 17.1782 8.39102C17.0256 8.13256 16.7552 7.92852 16.5033 7.77658C16.8719 8.55381 17.3211 9.47215 17.0969 10.4275C17.0709 11.1652 16.6334 11.8738 16.6284 12.5849C16.6267 12.8385 16.6811 13.0921 16.8277 13.3481C17.4115 14.3942 18.4618 15.3843 18.0668 16.6962C17.9582 17.0992 17.6349 17.4108 17.5542 17.8209C18.2372 18.3836 18.8829 19.0177 19.7891 19.0534C20.112 18.8483 19.9326 17.9384 20.5969 18.3581L21.5667 18.8407C21.496 19.099 21.2787 19.3305 21.0818 19.5084C20.7138 19.3302 20.3549 19.1166 19.8961 19.134C19.7608 19.2768 19.6444 19.4371 19.6547 19.642C19.9776 19.6949 20.2737 19.8305 20.5435 20.0183C20.4182 20.2867 20.1742 20.4548 19.9498 20.6603L19.1975 20.3927C19.0719 20.5715 18.8109 20.7595 18.9025 20.9557C19.0723 21.028 19.2606 21.1258 19.3855 21.2511C19.0535 21.6082 18.6326 21.8379 18.2276 22.0803C17.8787 20.9459 16.7293 20.1505 16.8279 18.8386L16.7745 18.7856C16.5043 19.0878 16.5946 19.5711 16.612 19.9633C16.9354 20.785 17.7067 21.4197 17.8237 22.3207C17.6886 22.5526 17.3841 22.5989 17.1506 22.697C17.1777 21.0724 14.7007 19.8402 16.2892 18.1969C16.8189 17.3922 17.7064 16.6243 17.392 15.5165C17.0691 14.4468 15.9271 13.784 15.9371 12.5849L15.9389 12.4914C16.199 11.2409 16.9892 9.91033 16.3428 8.58005C16.1626 8.04499 15.7601 7.43696 15.2126 7.21334C16.0289 8.14284 16.3525 9.65941 15.8855 10.9101C15.6502 11.4076 15.3262 12.0003 15.2937 12.5852H15.2917C15.2744 12.8906 15.3371 13.1943 15.5351 13.4823C16.1549 14.4828 17.2313 15.5817 16.6121 16.8855C15.9121 17.9298 14.6915 18.992 15.3732 20.3675C15.8668 21.189 16.6303 22.0087 16.4244 23.0185L15.6166 23.2861C16.1551 21.4026 13.5161 20.2958 14.6209 18.4116C15.3029 17.4027 16.5228 16.456 15.8323 15.1169C15.4194 14.2872 14.5664 13.7961 14.5934 12.7592L14.6227 12.5851C14.9007 11.1145 16.0243 9.7225 15.2386 8.15102C15.0322 7.687 14.6196 7.2139 14.1616 6.94581L14.134 6.97334C15.0499 7.85733 15.3286 9.31177 14.8347 10.481C14.6043 11.1669 14.0986 11.8502 13.9958 12.5853C13.947 12.9319 13.9882 13.2911 14.1895 13.6695C14.7728 14.5885 15.7957 15.5633 15.1574 16.7515C14.4852 17.7328 13.3629 18.6877 13.8112 19.9638C14.3049 21.0804 15.3359 22.144 14.7792 23.5284L13.9457 23.7157C14.6097 22.3665 13.6142 21.0277 13.031 19.8576C12.3216 18.1788 14.5552 17.3749 14.591 15.84C14.5825 14.8494 13.524 14.2868 13.3002 13.3761C12.842 12.9916 12.3672 13.529 11.8194 13.4293C11.4151 13.5101 10.794 12.8755 10.5526 13.5634C10.2652 14.5719 8.95556 15.3133 9.53113 16.5094C10.0788 17.5724 11.3968 18.3497 10.9565 19.7254C10.5623 21.0103 9.26013 22.2337 10.0677 23.7157C9.73598 23.6088 9.11644 23.8135 9.12539 23.2862C8.61405 21.4915 10.7946 20.4459 10.1211 18.6522C9.8077 17.5535 8.3796 16.9465 8.694 15.6251C8.92644 14.5373 10.1533 13.7768 9.98124 12.5852C9.96728 12.4855 9.9426 12.3834 9.90734 12.2769C9.4494 10.9911 8.51514 9.705 9.07198 8.20432C9.22487 7.77569 9.53024 7.40967 9.79858 7.02656C8.90998 7.49965 8.46173 8.50003 8.48012 9.51774C8.4414 10.6245 9.26311 11.5725 9.38002 12.5852C9.42601 12.994 9.35872 13.4125 9.07198 13.8564C8.48908 14.6434 7.72674 15.4731 8.07624 16.5093C8.40856 17.5544 9.71879 18.1876 9.63803 19.4024C9.62916 20.8395 7.95078 21.7342 8.42647 23.3413L7.59112 23.0717C7.25944 21.6436 8.78493 20.9129 8.80243 19.5916C9.01833 18.072 7.07033 17.5082 7.18724 16.027C7.17884 14.9015 8.17459 14.1888 8.61437 13.2421C8.68981 13.0117 8.7149 12.794 8.70481 12.5853C8.65092 11.5386 7.70294 10.7203 7.86026 9.54351C7.91319 8.67742 8.20936 7.91825 8.775 7.26688C7.99459 7.5788 7.6722 8.47258 7.45662 9.22276C7.08251 10.4256 7.97555 11.5077 8.06511 12.5854C8.1048 13.0613 7.9879 13.5345 7.53779 14.0183C6.89122 14.7763 6.23554 15.7328 6.70235 16.7516C7.19667 17.8758 8.74967 18.7508 8.07608 20.1529C7.70858 21.037 6.82862 21.7063 6.86476 22.7506C6.6316 22.6524 6.38972 22.5545 6.19157 22.3764C6.19157 21.0462 8.09351 20.2153 7.18732 18.8134C7.10704 19.09 7.08977 19.4659 7.02693 19.7784C6.71244 20.5914 6.03957 21.2421 5.78777 22.0825C5.36671 21.9208 4.92644 21.5812 4.57621 21.224L5.06134 20.9287C5.00744 20.7497 4.86407 20.5981 4.7387 20.4463C4.42365 20.4023 4.21678 20.6079 3.95708 20.6885C3.73271 20.4917 3.51616 20.313 3.3373 20.072C3.49833 19.6156 4.75661 19.993 4.11916 19.2427C3.68882 18.975 3.25686 19.3574 2.88001 19.5359L2.36915 18.894C2.80893 18.6263 3.24758 18.2504 3.79459 18.3582C3.9294 18.5998 3.93876 18.955 4.19847 19.0811C5.12305 19.0632 5.77817 18.3674 6.48694 17.8225C5.99294 17.0912 5.59083 16.0816 6.02965 15.1972C6.38125 14.311 7.29736 13.5646 7.33891 12.5848C7.34827 12.3619 7.31334 12.1272 7.21531 11.8747C6.73091 10.6334 6.55995 8.95571 7.48454 7.857C6.98183 7.99137 6.68541 8.61473 6.51461 9.08807C5.95881 10.3002 6.66177 11.4231 6.68606 12.5848C6.68936 12.7937 6.67234 13.0031 6.62143 13.2141C6.14558 14.1694 5.37461 15.0076 5.2494 16.107C4.70175 16.4545 4.25212 17.0623 3.47179 16.8572C3.44436 17.0624 3.50721 17.3751 3.57877 17.6075C2.95996 17.5817 2.53801 18.0354 2.01698 18.2497C1.73944 18.1611 1.66724 17.8042 1.55977 17.5544C2.16963 17.3494 2.60957 16.7412 3.30979 16.7508C3.39095 16.5265 3.26428 16.3209 3.22854 16.1068C2.35753 15.7222 0.976864 18.0082 0.860766 16.0262C1.73113 15.9726 2.28734 15.1688 3.14932 15.0887L3.17505 14.4467C2.19682 14.3484 1.56752 15.3489 0.589684 15.2503L0.374028 14.3936C1.50515 14.4639 2.17907 13.4554 3.2563 13.4012C3.39942 13.2139 3.41669 12.9371 3.44428 12.6784C2.26846 12.5259 1.46159 13.8223 0.213638 13.4286C0.213638 13.4286 0.170636 12.8891 0.147319 12.5848H0.149013C0.140542 12.4659 0.132474 12.383 0.132474 12.383C1.24528 12.8126 2.22304 12.0174 3.17505 11.6069C3.41717 11.5348 3.79475 11.6598 3.90334 11.3921C3.89391 11.1867 4.27044 10.9466 3.957 10.8032C2.5652 10.6153 1.64061 12.2854 0.213476 11.526L0.106415 11.3113C0.403315 7.27587 2.6909 3.37438 6.48694 1.45446C8.02436 0.580349 9.93437 0.134784 11.8606 0.118971C14.1852 0.0997874 16.5341 0.70645 18.2814 1.93703C19.9783 2.97256 21.6014 4.67913 22.4823 6.41155C23.3247 7.92941 23.7125 9.6326 23.8282 11.4458C22.356 12.5526 21.3683 10.4032 19.8691 10.8842C19.9499 11.1168 19.9946 11.3575 20.166 11.5539C21.4947 11.5446 22.4096 12.9287 23.8005 12.3832L23.8017 12.5849ZM6.89034 7.61492C5.95679 7.00753 4.77323 7.57944 3.90318 7.91022C3.82242 7.09727 3.49059 6.35664 2.79868 5.82094C2.73156 5.78771 2.63878 5.71779 2.55519 5.71266C2.50517 5.70953 2.45757 5.72959 2.42062 5.79325C2.73422 7.71268 1.48006 9.05203 0.591298 10.5081C0.887229 10.7487 1.36267 10.7128 1.72161 10.642C2.66379 10.2672 3.56126 9.61478 4.68311 9.83841C5.01486 9.27589 5.57228 8.73104 6.02933 8.28459C6.30856 8.04419 6.69219 7.89152 6.89034 7.61492ZM9.74493 8.82038C9.72702 8.93596 9.75389 9.14201 9.93299 9.06238C10.2117 8.67846 10.705 8.98219 11.01 9.00924V8.9012C10.8427 8.63977 10.4984 8.50846 10.1488 8.52154C10.0681 8.52435 9.98616 8.53607 9.90726 8.55429C9.79027 8.58013 9.70887 8.68665 9.74493 8.82038ZM14.1336 7.67006C13.883 7.1163 13.3085 6.89219 12.7873 6.7583C12.5318 6.727 12.2666 6.70581 12.0035 6.70332C11.9543 6.70284 11.905 6.70219 11.856 6.70332C11.1203 6.71809 10.4173 6.90599 9.98786 7.50848C9.92622 7.67857 9.65522 7.91745 9.90685 8.06987C10.4723 8.03391 11.1176 7.96336 11.4945 8.44617C11.4945 8.8752 11.773 9.44598 11.3065 9.65139C10.9199 9.29532 10.4622 9.80293 10.0416 9.51718C9.84384 9.40095 9.71871 9.5366 9.63771 9.70621C9.5208 10.8132 10.1034 12.0349 11.1443 12.6507C11.5662 12.8021 12.1333 12.9461 12.5735 12.7313C13.6325 12.2407 14.0712 11.1163 14.2684 10.0804C14.2419 9.88328 14.2514 9.49912 13.9733 9.48981C13.6594 9.68735 13.2016 9.57064 12.8688 9.48981C12.6721 9.55298 12.6631 9.83929 12.4392 9.89355L12.3028 9.78527C12.186 9.29492 12.1139 8.59819 12.5721 8.2589C13.0841 8.0535 13.6854 7.96376 14.2149 8.12494C14.3137 7.95541 14.1612 7.82193 14.1336 7.67006ZM13.5933 8.55052C13.5577 8.5514 13.5231 8.55316 13.488 8.55429C13.3 8.6791 12.7519 8.58937 12.9498 9.00924C13.291 8.74067 13.7667 8.9289 14.1077 9.06238C14.2338 9.00009 14.2065 8.87504 14.2148 8.76724C14.1053 8.56456 13.8437 8.54554 13.5933 8.55052ZM17.5009 4.77521C16.8366 4.74014 16.2803 5.11531 15.6699 5.28507C15.6167 4.76831 16.0113 4.22257 16.1013 3.7038C15.1144 3.76697 14.3327 4.35798 13.5162 4.83011C13.3273 4.37588 13.1377 3.91932 12.9501 3.4634L14.0271 2.44521L14.0547 2.31108L12.5999 2.23049C12.3493 1.79367 12.2506 1.26752 11.9544 0.8657C11.7121 1.32106 11.5492 1.80298 11.3071 2.25794L9.85409 2.33877V2.44521L10.9569 3.43587C10.8221 3.94508 10.6968 4.49837 10.365 4.88325C9.71887 4.49821 9.08191 4.07913 8.37346 3.81176C8.20299 3.75702 7.95998 3.668 7.80742 3.78431C8.03146 4.27555 8.34523 4.80395 8.29246 5.34013C7.99613 5.28587 7.76321 5.09684 7.48478 5.01738C7.15182 4.927 6.75673 4.75041 6.43369 4.85781C6.97231 5.60743 7.41193 6.39196 7.56401 7.29409C9.35081 6.43611 11.4346 5.96422 13.5976 6.33088C14.6115 6.49141 15.5438 6.9023 16.4504 7.24079C16.4858 6.29484 17.0872 5.5347 17.5009 4.77521ZM20.5693 9.91908C21.484 10.16 22.4017 11.1515 23.3703 10.5082C22.5267 9.11544 21.2711 7.82931 21.6203 6.00804C21.6568 5.88371 21.5761 5.75785 21.4599 5.74019C20.9126 5.96269 20.4888 6.49912 20.2723 7.0264C20.1832 7.33824 20.1305 7.66974 20.005 7.96368C19.3494 7.62423 18.6498 7.29537 17.8511 7.37484C17.5631 7.41056 17.1502 7.42934 17.097 7.72352C18.0034 8.20545 18.7488 9.00973 19.3043 9.86618C19.6911 9.80341 20.1654 9.85703 20.5693 9.91908ZM10.9841 11.1778L11.0099 11.3392C11.3606 11.5716 11.4685 11.9656 11.954 11.9298C12.3846 11.9552 12.7076 11.5539 12.9222 11.2327C12.3395 11.1526 11.6305 11.2765 10.9841 11.1778ZM11.469 10.4549C11.4865 10.5265 11.4245 10.6336 11.5224 10.6697C11.8096 10.6077 12.3299 10.8218 12.4903 10.4825C12.3783 10.3577 12.1955 10.301 12.0036 10.301C11.8119 10.301 11.6128 10.3566 11.469 10.4549Z" fill="#007042"/>
<path opacity="0.99" d="M10.9847 10.1451H12.9527V10.9495H10.9847V10.1451Z" fill="white"/>
<path d="M11.3483 10.5752C11.6026 10.6351 11.6655 10.7248 11.8665 10.7498C12.0801 10.7461 12.0493 10.7029 12.4219 10.5749C12.4464 10.5663 12.48 10.5126 12.4383 10.4715C12.2069 10.2429 12.047 10.4062 11.902 10.4105C11.7095 10.4126 11.5291 10.2466 11.3411 10.4624C11.3091 10.5062 11.2924 10.5492 11.3483 10.5752Z" fill="#007042"/>
<path d="M20.6454 23.773V22.6274H20.2341V22.3941H21.3356V22.6274H20.9252V23.773H20.6454Z" fill="#007042"/>
<path d="M21.5134 23.773V22.394H21.9322L22.1837 23.3347L22.4323 22.394H22.8521V23.773H22.5921V22.6875L22.3169 23.773H22.0475L21.7733 22.6875V23.773H21.5134Z" fill="#007042"/>
</g>
<defs>
<clipPath id="clip0_125_6">
<rect width="24" height="24" fill="white"/>
</clipPath>
</defs>
</svg>
