<svg width="72" height="24" viewBox="0 0 72 24" fill="none" xmlns="http://www.w3.org/2000/svg">
<g clip-path="url(#clip0_125_34)">
<path d="M10.7368 10.7375H6.31578V12H10.7368V17.0533H3.78947L1.26315 14.5269V1.26315H6.31578V5.68421H10.7368V10.7375Z" fill="white"/>
<path d="M29.6842 17.0533H14.5263L12 14.5269V5.6842H17.0526V12H18.3158V5.6842H23.3684V12H24.6316V5.6842H29.6842V17.0533Z" fill="white"/>
<path d="M36 5.6842H30.9474V17.0526H36V5.6842Z" fill="white"/>
<path d="M36 1.26315H30.9474V4.42105H36V1.26315Z" fill="white"/>
<path d="M46.7368 10.7375H42.3158V12H46.7368V17.0533H39.7895L37.2632 14.5269V1.26315H42.3158V5.68421H46.7368V10.7375Z" fill="white"/>
<path d="M58.1053 10.7375H53.0526V12H58.1053V17.0533H50.5263L48 14.5269V8.21115L50.5263 5.6842H58.1053V10.7375Z" fill="white"/>
<path d="M70.7368 17.0533H65.6842V10.7375H64.4211V17.0533H59.3684V1.26315H64.4211V5.68421H68.2105L70.7368 8.21115V17.0533Z" fill="white"/>
<path d="M68.8421 4.42105H65.6842V0H58.7501L55.5613 4.42105H49.8947L48 6.31579V4.42105H43.5789V0H29.6842V4.42105H10.1368L6.94737 0H0V15.1579L8.84211 24H17.6842V21.4737L20.2105 24H37.2632V21.4737L39.7895 24H48V21.4737L50.5263 24H66.3158L72 18.3158V7.57895L68.8421 4.42105ZM10.7368 10.7368H6.31579V12H10.7368V17.0526H3.78947L1.26316 14.5263V1.26316H6.31579V5.68421H10.7368V10.7368ZM29.6842 17.0526H14.5263L12 14.5263V5.68421H17.0526V12H18.3158V5.68421H23.3684V12H24.6316V5.68421H29.6842V17.0526ZM36 17.0526H30.9474V5.68421H36V17.0526ZM36 4.42105H30.9474V1.26316H36V4.42105ZM46.7368 10.7368H42.3158V12H46.7368V17.0526H39.7895L37.2632 14.5263V1.26316H42.3158V5.68421H46.7368V10.7368ZM58.1053 10.7368H53.0526V12H58.1053V17.0526H50.5263L48 14.5263V8.21053L50.5263 5.68421H58.1053V10.7368ZM70.7368 17.0526H65.6842V10.7368H64.4211V17.0526H59.3684V1.26316H64.4211V5.68421H68.2105L70.7368 8.21053V17.0526Z" fill="#9146FF"/>
</g>
<defs>
<clipPath id="clip0_125_34">
<rect width="72" height="24" fill="white"/>
</clipPath>
</defs>
</svg>
