<svg width="40" height="24" viewBox="0 0 40 24" fill="none" xmlns="http://www.w3.org/2000/svg">
<g clip-path="url(#clip0_125_63)">
<path d="M10.6956 0L6.56052 8.11296V13.5548H4.17488V8.15282L0 0H2.54469L5.4671 5.78073L8.23047 0H10.6956Z" fill="url(#paint0_linear_125_63)"/>
<path d="M19.585 7.89369V9.0897C19.585 10.4983 19.2006 11.6279 18.4319 12.4784C17.6632 13.3289 16.5764 13.7542 15.1715 13.7542C13.7666 13.7542 12.6798 13.3289 11.9111 12.4784C11.1424 11.6279 10.7581 10.4983 10.7581 9.0897V7.89369C10.7581 6.48505 11.1358 5.36213 11.8913 4.52492C12.66 3.67442 13.7534 3.24917 15.1715 3.24917C16.5896 3.24917 17.6764 3.67442 18.4319 4.52492C19.2006 5.36213 19.585 6.48505 19.585 7.89369ZM17.2391 7.89369C17.2391 7.08306 17.0602 6.45183 16.7023 6C16.3445 5.53488 15.8342 5.30233 15.1715 5.30233C14.5088 5.30233 13.9986 5.53488 13.6407 6C13.2829 6.45183 13.104 7.08306 13.104 7.89369V9.0897C13.104 9.90033 13.2829 10.5382 13.6407 11.0033C13.9986 11.4684 14.5088 11.701 15.1715 11.701C15.8342 11.701 16.3445 11.4684 16.7023 11.0033C17.0602 10.5382 17.2391 9.90033 17.2391 9.0897V7.89369Z" fill="url(#paint1_linear_125_63)"/>
<path d="M28.1523 13.5548V12.2193C27.5426 12.7508 26.9727 13.1429 26.4426 13.3953C25.9125 13.6346 25.3757 13.7542 24.8323 13.7542C23.931 13.7542 23.2352 13.4485 22.7449 12.8372C22.2545 12.2126 22.0093 11.3422 22.0093 10.2259V3.4485H24.2955V9.94684C24.2955 11.0631 24.7064 11.6213 25.5281 11.6213C25.8594 11.6213 26.2173 11.5415 26.6016 11.3821C26.9993 11.2226 27.4764 10.9169 28.033 10.4651V3.4485H30.3193V13.5548H28.1523Z" fill="url(#paint2_linear_125_63)"/>
<path d="M39.1528 5.54153C38.5299 5.54153 37.9335 5.6412 37.3636 5.84053C36.8069 6.02658 36.2702 6.33223 35.7533 6.75748V13.5548H33.467V3.4485H35.634V5.00332C36.3099 4.36545 36.913 3.91362 37.4431 3.64784C37.9733 3.38206 38.5432 3.24917 39.1528 3.24917V5.54153Z" fill="url(#paint3_linear_125_63)"/>
<path d="M1.13727 19.8973V20.3757C1.13727 20.7216 1.21308 20.9811 1.36472 21.1541C1.51636 21.327 1.76029 21.4135 2.09652 21.4135C2.26134 21.4135 2.44595 21.3973 2.65032 21.3649C2.86129 21.327 3.08875 21.2703 3.33268 21.1946L3.65903 21.9811C3.36235 22.0784 3.08216 22.1514 2.81844 22.2C2.55473 22.2486 2.29431 22.273 2.03719 22.273C1.3779 22.273 0.873553 22.1 0.524133 21.7541C0.174712 21.4081 0 20.9486 0 20.3757V19.8973C0 19.3189 0.174712 18.8595 0.524133 18.5189C0.873553 18.173 1.3779 18 2.03719 18C2.28772 18 2.54154 18.0243 2.79866 18.073C3.05578 18.1216 3.32609 18.1919 3.60958 18.2838L3.28324 19.0865C2.80855 18.9351 2.41298 18.8595 2.09652 18.8595C1.76029 18.8595 1.51636 18.9459 1.36472 19.1189C1.21308 19.2865 1.13727 19.5459 1.13727 19.8973Z" fill="url(#paint4_linear_125_63)"/>
<path d="M8.80384 19.8892V20.3757C8.80384 20.9486 8.61264 21.4081 8.23026 21.7541C7.84787 22.1 7.30726 22.273 6.60842 22.273C5.90958 22.273 5.36897 22.1 4.98658 21.7541C4.6042 21.4081 4.413 20.9486 4.413 20.3757V19.8892C4.413 19.3162 4.6009 18.8595 4.9767 18.5189C5.35908 18.173 5.90299 18 6.60842 18C7.31386 18 7.85447 18.173 8.23026 18.5189C8.61264 18.8595 8.80384 19.3162 8.80384 19.8892ZM7.6369 19.8892C7.6369 19.5595 7.5479 19.3027 7.3699 19.1189C7.19189 18.9297 6.93807 18.8351 6.60842 18.8351C6.27878 18.8351 6.02496 18.9297 5.84695 19.1189C5.66894 19.3027 5.57994 19.5595 5.57994 19.8892V20.3757C5.57994 20.7054 5.66894 20.9649 5.84695 21.1541C6.02496 21.3432 6.27878 21.4378 6.60842 21.4378C6.93807 21.4378 7.19189 21.3432 7.3699 21.1541C7.5479 20.9649 7.6369 20.7054 7.6369 20.3757V19.8892Z" fill="url(#paint5_linear_125_63)"/>
<path d="M11.2163 19.3459V22.1919H10.079V18.0811H11.1569V18.6243C11.4668 18.4027 11.7536 18.2432 12.0173 18.1459C12.281 18.0486 12.5513 18 12.8282 18C13.4414 18 13.86 18.2216 14.0842 18.6649C14.4138 18.427 14.7204 18.2568 15.0039 18.1541C15.2874 18.0514 15.5741 18 15.8642 18C16.3257 18 16.6784 18.127 16.9224 18.3811C17.1663 18.6297 17.2883 18.9811 17.2883 19.4351V22.1919H16.151V19.5486C16.151 19.0946 15.94 18.8676 15.5181 18.8676C15.3533 18.8676 15.172 18.9 14.9742 18.9649C14.7764 19.0297 14.5358 19.1568 14.2523 19.3459V22.1919H13.115V19.5486C13.115 19.0946 12.904 18.8676 12.4821 18.8676C12.3173 18.8676 12.136 18.9 11.9382 18.9649C11.7404 19.0297 11.4998 19.1568 11.2163 19.3459Z" fill="url(#paint6_linear_125_63)"/>
<path d="M20.936 22.273C20.7712 22.273 20.6031 22.2595 20.4317 22.2324C20.2669 22.2054 20.0987 22.1676 19.9273 22.1189V23.9189H18.7901V18.0811H19.868V18.6405C20.1779 18.3865 20.4416 18.2162 20.6591 18.1297C20.8767 18.0432 21.1041 18 21.3415 18C21.8887 18 22.3106 18.1676 22.6073 18.5027C22.904 18.8378 23.0523 19.3081 23.0523 19.9135V20.3514C23.0523 20.9405 22.871 21.4081 22.5084 21.7541C22.1458 22.1 21.6217 22.273 20.936 22.273ZM21.0349 18.8676C20.8833 18.8676 20.7218 18.9054 20.5503 18.9811C20.3855 19.0514 20.1779 19.1892 19.9273 19.3946V21.2757C20.2504 21.3838 20.5471 21.4378 20.8174 21.4378C21.1997 21.4378 21.4733 21.3405 21.6382 21.1459C21.803 20.9514 21.8854 20.6865 21.8854 20.3514V19.9135C21.8854 19.5514 21.8096 19.2865 21.6579 19.1189C21.5129 18.9514 21.3052 18.8676 21.0349 18.8676Z" fill="url(#paint7_linear_125_63)"/>
<path d="M28.1696 22.2324C27.8333 22.2324 27.563 22.1757 27.3586 22.0622C27.1609 21.9486 27.0158 21.8081 26.9235 21.6405C26.64 21.8568 26.3664 22.0162 26.1027 22.1189C25.839 22.2216 25.5555 22.273 25.2522 22.273C24.8105 22.273 24.4842 22.1568 24.2732 21.9243C24.0688 21.6919 23.9666 21.3973 23.9666 21.0405C23.9666 20.8027 24.0194 20.5946 24.1249 20.4162C24.2369 20.2324 24.4182 20.0892 24.6688 19.9865C24.9193 19.8838 25.2621 19.8324 25.6972 19.8324C25.8687 19.8324 26.0467 19.8432 26.2313 19.8649C26.4159 19.8811 26.6005 19.9027 26.7851 19.9297V19.4514C26.7851 19.2243 26.7092 19.0703 26.5576 18.9892C26.406 18.9027 26.2016 18.8595 25.9445 18.8595C25.7467 18.8595 25.5291 18.8811 25.2918 18.9243C25.061 18.9676 24.8105 19.0351 24.5402 19.127L24.2139 18.3324C24.8797 18.1108 25.483 18 26.0236 18C26.5115 18 26.8873 18.0676 27.151 18.2027C27.4213 18.3378 27.6092 18.5162 27.7146 18.7378C27.8201 18.9595 27.8729 19.1973 27.8729 19.4514V21.0324C27.8729 21.1135 27.8993 21.1919 27.952 21.2676C28.0113 21.3378 28.1234 21.373 28.2882 21.373H28.397V22.2324H28.1696ZM25.0643 21.0243C25.0643 21.1703 25.1039 21.2865 25.183 21.373C25.2621 21.4541 25.3775 21.4946 25.5291 21.4946C25.6808 21.4946 25.8522 21.4622 26.0434 21.3973C26.2346 21.3324 26.4818 21.1811 26.7851 20.9432V20.5946C26.4422 20.5459 26.106 20.5216 25.7764 20.5216C25.5192 20.5216 25.3346 20.5649 25.2226 20.6514C25.1171 20.7378 25.0643 20.8622 25.0643 21.0243Z" fill="url(#paint8_linear_125_63)"/>
<path d="M31.8369 18.8676C31.672 18.8676 31.4841 18.9 31.2732 18.9649C31.0622 19.0297 30.8117 19.1568 30.5216 19.3459V22.1919H29.3843V18.0811H30.4622V18.6324C30.7721 18.4108 31.0655 18.2514 31.3424 18.1541C31.6193 18.0514 31.8995 18 32.183 18C32.6643 18 33.0302 18.127 33.2807 18.3811C33.5312 18.6297 33.6565 18.9811 33.6565 19.4351V22.1919H32.5192V19.5486C32.5192 19.0946 32.2918 18.8676 31.8369 18.8676Z" fill="url(#paint9_linear_125_63)"/>
<path d="M37.0419 22.5973C36.8244 23.0946 36.5475 23.4514 36.2112 23.6676C35.875 23.8892 35.4135 24 34.8267 24V23.0676C35.1762 23.0568 35.4498 22.9919 35.6475 22.873C35.8519 22.7595 36.0036 22.6 36.1024 22.3946L36.1914 22.2081L34.4015 18.0811H35.5289L36.3892 20.1324L36.7255 21L37.0518 20.1324L37.8726 18.0811H39L37.0419 22.5973Z" fill="url(#paint10_linear_125_63)"/>
</g>
<defs>
<linearGradient id="paint0_linear_125_63" x1="-1.16772" y1="27.1581" x2="12.1401" y2="-36.6825" gradientUnits="userSpaceOnUse">
<stop stop-color="#FFFF4D"/>
<stop offset="0.5" stop-color="#D58229"/>
<stop offset="1" stop-color="#EF5350"/>
</linearGradient>
<linearGradient id="paint1_linear_125_63" x1="-1.16772" y1="27.1581" x2="12.1401" y2="-36.6825" gradientUnits="userSpaceOnUse">
<stop stop-color="#FFFF4D"/>
<stop offset="0.5" stop-color="#D58229"/>
<stop offset="1" stop-color="#EF5350"/>
</linearGradient>
<linearGradient id="paint2_linear_125_63" x1="-1.16772" y1="27.1581" x2="12.1401" y2="-36.6825" gradientUnits="userSpaceOnUse">
<stop stop-color="#FFFF4D"/>
<stop offset="0.5" stop-color="#D58229"/>
<stop offset="1" stop-color="#EF5350"/>
</linearGradient>
<linearGradient id="paint3_linear_125_63" x1="-1.16772" y1="27.1581" x2="12.1401" y2="-36.6825" gradientUnits="userSpaceOnUse">
<stop stop-color="#FFFF4D"/>
<stop offset="0.5" stop-color="#D58229"/>
<stop offset="1" stop-color="#EF5350"/>
</linearGradient>
<linearGradient id="paint4_linear_125_63" x1="-22.7658" y1="27.7251" x2="-18.2776" y2="1.39418" gradientUnits="userSpaceOnUse">
<stop stop-color="#FFFF4D"/>
<stop offset="0.5" stop-color="#D58229"/>
<stop offset="1" stop-color="#EF5350"/>
</linearGradient>
<linearGradient id="paint5_linear_125_63" x1="-22.7658" y1="27.7251" x2="-18.2776" y2="1.39418" gradientUnits="userSpaceOnUse">
<stop stop-color="#FFFF4D"/>
<stop offset="0.5" stop-color="#D58229"/>
<stop offset="1" stop-color="#EF5350"/>
</linearGradient>
<linearGradient id="paint6_linear_125_63" x1="-22.7658" y1="27.7251" x2="-18.2776" y2="1.39418" gradientUnits="userSpaceOnUse">
<stop stop-color="#FFFF4D"/>
<stop offset="0.5" stop-color="#D58229"/>
<stop offset="1" stop-color="#EF5350"/>
</linearGradient>
<linearGradient id="paint7_linear_125_63" x1="-22.7658" y1="27.7251" x2="-18.2776" y2="1.39418" gradientUnits="userSpaceOnUse">
<stop stop-color="#FFFF4D"/>
<stop offset="0.5" stop-color="#D58229"/>
<stop offset="1" stop-color="#EF5350"/>
</linearGradient>
<linearGradient id="paint8_linear_125_63" x1="-22.7658" y1="27.7251" x2="-18.2776" y2="1.39418" gradientUnits="userSpaceOnUse">
<stop stop-color="#FFFF4D"/>
<stop offset="0.5" stop-color="#D58229"/>
<stop offset="1" stop-color="#EF5350"/>
</linearGradient>
<linearGradient id="paint9_linear_125_63" x1="-22.7658" y1="27.7251" x2="-18.2776" y2="1.39418" gradientUnits="userSpaceOnUse">
<stop stop-color="#FFFF4D"/>
<stop offset="0.5" stop-color="#D58229"/>
<stop offset="1" stop-color="#EF5350"/>
</linearGradient>
<linearGradient id="paint10_linear_125_63" x1="-22.7658" y1="27.7251" x2="-18.2776" y2="1.39418" gradientUnits="userSpaceOnUse">
<stop stop-color="#FFFF4D"/>
<stop offset="0.5" stop-color="#D58229"/>
<stop offset="1" stop-color="#EF5350"/>
</linearGradient>
<clipPath id="clip0_125_63">
<rect width="39.1528" height="24" fill="white"/>
</clipPath>
</defs>
</svg>
